<svg viewBox="0 0 100 24" fill="none" xmlns="http://www.w3.org/2000/svg">
<path d="M94.1406 7.73444V18.4393H96.769V10.1835H99.9906V7.73352L94.1406 7.73444Z" fill="currentColor"/>
<path d="M63.7874 7.73438H57.9375V18.4392H60.5658V10.1835H63.7874V7.73438Z" fill="currentColor"/>
<path d="M54.7099 5.29944H48.875V7.7344H52.0975V18.4392H54.7108V7.7344H57.9324V5.29944H54.7099Z" fill="currentColor"/>
<path d="M78.896 9.81267C79.2106 9.79426 79.5245 9.85696 79.8079 9.9947C80.0913 10.1324 80.3345 10.3406 80.5144 10.5993C80.6963 10.8948 80.7985 11.2325 80.811 11.5793H83.3051C83.2672 10.7481 82.9829 9.94692 82.4884 9.27769C82.0506 8.74721 81.4988 8.32224 80.8741 8.03442C80.2494 7.7466 79.5679 7.60329 78.8801 7.61519C78.1849 7.61017 77.4969 7.75627 76.8637 8.04331C76.2304 8.33035 75.6671 8.75152 75.2127 9.27769C74.4573 10.4235 74.0547 11.7657 74.0547 13.138C74.0547 14.5104 74.4573 15.8526 75.2127 16.9984C75.6672 17.5245 76.2305 17.9456 76.8637 18.2327C77.4969 18.5197 78.1849 18.6658 78.8801 18.6608C79.5674 18.6695 80.2478 18.5247 80.872 18.2371C81.4962 17.9495 82.0484 17.5263 82.4884 16.9984C82.9874 16.3316 83.2722 15.529 83.3051 14.6968H80.8092C80.7896 15.0424 80.6879 15.3783 80.5126 15.6767C80.3303 15.9329 80.0866 16.1391 79.8038 16.2766C79.5211 16.414 79.2083 16.4783 78.8943 16.4634C78.6049 16.4633 78.3186 16.404 78.053 16.289C77.7874 16.1741 77.5482 16.006 77.3501 15.795C76.7953 15.0263 76.5418 14.0807 76.6376 13.1376C76.5437 12.1852 76.7967 11.2309 77.3501 10.4501C77.5494 10.2424 77.7898 10.0784 78.056 9.96862C78.3221 9.85887 78.6082 9.80574 78.896 9.81267V9.81267Z" fill="currentColor"/>
<path d="M88.6233 7.61511C88.0004 7.59844 87.3805 7.70825 86.8011 7.93784C86.2218 8.16742 85.695 8.51202 85.2525 8.9509C84.2129 10.1035 83.6643 11.6164 83.7234 13.1675C83.6921 13.9435 83.8194 14.7177 84.0976 15.4427C84.3759 16.1678 84.7992 16.8284 85.3417 17.3841C85.7816 17.8117 86.3022 18.1475 86.8732 18.3718C87.4442 18.5962 88.0541 18.7046 88.6675 18.6908C89.3317 18.7191 89.994 18.6007 90.6073 18.3441C91.2205 18.0874 91.7697 17.6988 92.2157 17.2058C92.6737 16.6451 92.9804 15.9764 93.1066 15.2635H90.6866C90.6016 15.6005 90.4271 15.9083 90.1816 16.1543C89.9751 16.3436 89.7304 16.4866 89.4641 16.5737C89.1978 16.6608 88.916 16.69 88.6375 16.6593C88.0521 16.6546 87.4921 16.4199 87.0783 16.006C86.8166 15.7292 86.6132 15.4025 86.4805 15.0454C86.3478 14.6884 86.2884 14.3082 86.3058 13.9277H93.3732C93.3732 13.7052 93.3882 13.2152 93.3882 13.2152C93.4932 11.9199 93.1697 10.6261 92.4674 9.53276C92.0371 8.91819 91.4601 8.42086 90.7888 8.08597C90.1174 7.75108 89.3731 7.5892 88.6233 7.61511V7.61511ZM86.2925 12.1178C86.2779 11.5211 86.4721 10.9381 86.8417 10.4695C87.0521 10.2052 87.3213 9.99377 87.6278 9.85198C87.9344 9.7102 88.2698 9.64201 88.6074 9.65282C88.9024 9.63562 89.1977 9.68088 89.474 9.7857C89.7503 9.89053 90.0014 10.0525 90.2107 10.2611C90.6413 10.777 90.8731 11.43 90.864 12.1019H86.2908L86.2925 12.1178Z" fill="currentColor"/>
<path d="M72.8809 14.8759L72.896 11.9068C72.9265 11.1872 72.8207 10.4683 72.5843 9.78793C71.9751 8.19876 70.4318 7.6355 68.6343 7.6355C66.2735 7.6355 64.3877 8.68966 64.2544 11.0655H66.7044C66.7635 10.0855 67.4619 9.56457 68.6343 9.56457C70.0743 9.56457 70.4159 10.2329 70.4159 11.2279V11.8812L67.3127 12.1037C65.3086 12.2521 63.7344 13.4104 63.7344 15.4145C63.7344 17.137 65.041 18.7253 67.5502 18.7253C68.176 18.756 68.7992 18.626 69.3606 18.3479C69.922 18.0697 70.4029 17.6526 70.7576 17.1361V18.562H73.8018V16.7353H72.8809V14.8759ZM70.401 14.2376C70.401 15.7968 69.2876 16.6576 67.6985 16.6576C67.5124 16.6717 67.3255 16.6485 67.1486 16.5891C66.9717 16.5298 66.8084 16.4357 66.6685 16.3122C66.5286 16.1888 66.4149 16.0385 66.334 15.8704C66.2531 15.7023 66.2068 15.5196 66.1976 15.3333C66.2224 14.9519 66.3939 14.5951 66.6762 14.3376C66.9586 14.0801 67.3297 13.9421 67.7117 13.9525L70.3842 13.745V14.235L70.401 14.2376Z" fill="currentColor"/>
<path d="M43.3107 0.266113L22.9844 12.0084L43.3107 23.7382V20.6649L28.3293 12.0128L43.3107 3.36059V0.266113Z" fill="currentColor"/>
<path d="M23.0006 0.266113H20.3281V23.7399H23.0006V0.266113Z" fill="currentColor"/>
<path d="M0 3.35448L14.9815 12.0066L0 20.6588V23.7321L20.3264 12.0022L0 0.26001V3.35448Z" fill="currentColor"/>
</svg>
